# xmcd
#
# Track frame offsets:
#	150
#	15210
#	29477
#	43834
#	57513
#	71134
#	85429
#	99845
#	114193
#	129249
#	143124
#	155315
#	168865
#	183092
#	197331
#	211567
#	225392
#	239484
#	252032
#	264057
#	276418
#	288549
#	300166
#	312269
#	324905
#
# Disc length: 4490 seconds
#
# Revision: 0
# Processed by: cddbd v1.5.1PL0 Copyright (c) Steve Scherf et al.
# Submitted via: audiograbber 1.83.01
#
DISCID=3e118819
DTITLE=Jimmy Yancey - Hey! Piano Man - CD 1
DYEAR=1900
DGENRE=Boogie Woogie
TTITLE0=Jimmy's Stuff (take 1)
TTITLE1=The Fives
TTITLE2=La Salle Street Breakdown
TTITLE3=Two O'Clock Blues
TTITLE4=Janie's Joys
TTITLE5=Lean Bacon
TTITLE6=Big bear Train
TTITLE7=Lucille's Lament
TTITLE8=Beezum Blues
TTITLE9=Yancey Limited
TTITLE10=Rollin' the Stone
TTITLE11=Steady Rock Blues
TTITLE12=P.L.K. Special
TTITLE13=South Side Stuff
TTITLE14=Yancey's Getaway
TTITLE15=How Long Blues
TTITLE16=How Long Blues No.2
TTITLE17=Yancey Stomp
TTITLE18=State Street Special
TTITLE19=Tell 'em About Me
TTITLE20=Five O'Clock Blues
TTITLE21=Slow and Easy
TTITLE22=The Mellow Blues
TTITLE23=Bear Trap Blues
TTITLE24=Old Quaker Blues
EXTD=
EXTT0=
EXTT1=
EXTT2=
EXTT3=
EXTT4=
EXTT5=
EXTT6=
EXTT7=
EXTT8=
EXTT9=
EXTT10=
EXTT11=
EXTT12=
EXTT13=
EXTT14=
EXTT15=
EXTT16=
EXTT17=
EXTT18=
EXTT19=
EXTT20=
EXTT21=
EXTT22=
EXTT23=
EXTT24=
PLAYORDER=
